<?xml version="1.0" encoding="UTF-8"?>
<svg width="301px" height="304px" viewBox="0 0 301 304" version="1.1" xmlns="http://www.w3.org/2000/svg" xmlns:xlink="http://www.w3.org/1999/xlink">
    <title>logo</title>
    <g id="logo" stroke="none" stroke-width="1" fill="none" fill-rule="evenodd">
        <g id="logo_6a_o" transform="translate(0.438015, 0.647358)">
            <path d="M294.169353,255.684991 L149.820485,255.684991 L5.47019118,255.684991" id="Stroke-1" stroke="#FFC828" stroke-width="4" stroke-linecap="round" stroke-linejoin="bevel"></path>
            <path d="M113.737941,151.494984 L77.6553971,130.648496 L41.5685294,109.814231" id="Stroke-2" stroke="#FFC828" stroke-width="4" stroke-linecap="round" stroke-linejoin="bevel"></path>
            <path d="M258.083926,109.814231 L221.997074,130.648496 L185.894412,151.494984" id="Stroke-3" stroke="#FFC828" stroke-width="4" stroke-linecap="round" stroke-linejoin="bevel"></path>
            <path d="M149.820485,5.61201597 L77.6553971,130.648496 L149.820485,88.968478" id="Stroke-4" stroke="#FFC828" stroke-width="4" stroke-linecap="round" stroke-linejoin="bevel"></path>
            <path d="M77.6553971,130.648496 L5.47019118,255.684991 L41.5685294,234.847122 L77.6553971,214.000648 L77.6553971,130.648496 L77.6553971,130.648496 Z" id="Stroke-5" stroke="#FFC828" stroke-width="4" stroke-linecap="round" stroke-linejoin="bevel"></path>
            <path d="M221.997074,130.648496 L221.997074,214.017166 L258.083926,234.847122 L294.169353,255.684991" id="Stroke-6" stroke="#FFC828" stroke-width="4" stroke-linecap="round" stroke-linejoin="bevel"></path>
            <path d="M77.6553971,214.000648 L149.820485,255.684991 L221.997074,214.017166" id="Stroke-7" stroke="#FFC828" stroke-width="4" stroke-linecap="round" stroke-linejoin="bevel"></path>
            <line x1="149.820485" y1="88.968478" x2="221.997074" y2="130.648496" id="Stroke-8" stroke="#FFC828" stroke-width="4" stroke-linecap="round" stroke-linejoin="bevel"></line>
            <path d="M294.169353,255.684991 L221.997074,130.648496 L149.820485,5.61201597 L149.820485,47.2963584 L149.820485,88.968478" id="Stroke-9" stroke="#FFC828" stroke-width="4" stroke-linecap="round" stroke-linejoin="bevel"></path>
            <path d="M149.820485,297.36573 L149.820485,255.684991 L149.820485,214.017166" id="Stroke-10" stroke="#FFC828" stroke-width="4" stroke-linecap="round" stroke-linejoin="bevel"></path>
            <path d="M0,255.684991 C0,254.663704 0.231941176,253.74585 0.710882353,252.930691 C1.19054412,252.107635 1.83177941,251.458376 2.64247059,250.954205 C3.46536765,250.466537 4.37442647,250.214458 5.38330882,250.214458 C6.42089706,250.214458 7.34289706,250.466537 8.14136765,250.954205 C8.94704412,251.458376 9.57605882,252.107635 10.0514118,252.930691 C10.5353824,253.74585 10.7752206,254.663704 10.7752206,255.684991 C10.7752206,256.694054 10.5353824,257.611909 10.0514118,258.430656 C9.57605882,259.258023 8.94344118,259.907281 8.11623529,260.382726 C7.30985294,260.862481 6.40438235,261.110985 5.38330882,261.110985 C4.37442647,261.110985 3.46536765,260.862481 2.64247059,260.382726 C1.83177941,259.907281 1.19054412,259.258023 0.710882353,258.430656 C0.231941176,257.611909 0,256.694054 0,255.684991 L0,255.684991 Z" id="Fill-11" fill="#1A5290"></path>
            <path d="M35.8922647,234.962762 C35.8922647,233.920648 36.1321029,232.977656 36.6325882,232.125873 C37.1201471,231.274075 37.7901029,230.604004 38.6252059,230.08761 C39.4725147,229.582718 40.4110147,229.31771 41.4658529,229.31771 C42.5364853,229.31771 43.4915,229.582718 44.3100882,230.08761 C45.1416029,230.604004 45.7986324,231.274075 46.3034265,232.125873 C46.7830882,232.977656 47.0344118,233.920648 47.0344118,234.962762 C47.0344118,236.01276 46.7830882,236.968696 46.3034265,237.80827 C45.7986324,238.664363 45.1372941,239.333728 44.2892647,239.83862 C43.4462647,240.330584 42.5120588,240.579088 41.4658529,240.579088 C40.4110147,240.579088 39.4725147,240.330584 38.6252059,239.83862 C37.7901029,239.333728 37.1201471,238.664363 36.6325882,237.80827 C36.1321029,236.968696 35.8922647,236.01276 35.8922647,234.962762 L35.8922647,234.962762 Z" id="Fill-12" fill="#1A5290"></path>
            <path d="M72.1651029,214.203188 C72.1651029,213.165383 72.4085147,212.222391 72.9047059,211.370608 C73.3929853,210.514501 74.0622206,209.84443 74.9016324,209.327329 C75.7496618,208.823143 76.69175,208.558842 77.7379706,208.558842 C78.8129118,208.558842 79.7600294,208.823143 80.5822059,209.327329 C81.4180294,209.84443 82.0836765,210.514501 82.5669265,211.370608 C83.0595147,212.222391 83.3115588,213.165383 83.3115588,214.203188 C83.3115588,215.258216 83.0595147,216.213431 82.5669265,217.060904 C82.0836765,217.904068 81.4015147,218.574154 80.5743088,219.079046 C79.7183824,219.563111 78.7884853,219.810894 77.7379706,219.810894 C76.69175,219.810894 75.7496618,219.563111 74.9016324,219.079046 C74.0622206,218.574154 73.3929853,217.904068 72.9047059,217.060904 C72.4085147,216.213431 72.1651029,215.258216 72.1651029,214.203188 L72.1651029,214.203188 Z" id="Fill-13" fill="#1A5290"></path>
            <path d="M144.337382,213.934577 C144.337382,212.883843 144.585824,211.928643 145.085588,211.089789 C145.569574,210.237285 146.247412,209.563611 147.091853,209.063028 C147.92625,208.541618 148.872647,208.289525 149.919574,208.289525 C150.989485,208.289525 151.937324,208.541618 152.758794,209.063028 C153.594618,209.563611 154.248044,210.237285 154.743515,211.089789 C155.236103,211.928643 155.488853,212.883843 155.488853,213.934577 C155.488853,214.988899 155.236103,215.931891 154.743515,216.771466 C154.248044,217.623249 153.583132,218.293335 152.747309,218.801816 C151.904294,219.293779 150.960765,219.537973 149.919574,219.537973 C148.872647,219.537973 147.92625,219.293779 147.091853,218.801816 C146.247412,218.293335 145.569574,217.623249 145.085588,216.771466 C144.585824,215.931891 144.337382,214.988899 144.337382,213.934577 L144.337382,213.934577 Z" id="Fill-14" fill="#1A5290"></path>
            <path d="M216.340191,214.149324 C216.340191,213.095002 216.588647,212.144097 217.068309,211.300212 C217.565206,210.464947 218.243059,209.778358 219.086059,209.261243 C219.929059,208.757072 220.872588,208.500669 221.913779,208.500669 C222.989426,208.500669 223.931529,208.757072 224.774529,209.261243 C225.585941,209.778358 226.246559,210.464947 226.743456,211.300212 C227.238912,212.144097 227.487368,213.095002 227.487368,214.149324 C227.487368,215.203632 227.238912,216.147345 226.743456,216.994833 C226.246559,217.846616 225.585941,218.508068 224.742941,219.004355 C223.8985,219.509247 222.956397,219.752721 221.913779,219.752721 C220.872588,219.752721 219.929059,219.509247 219.086059,219.004355 C218.243059,218.508068 217.565206,217.846616 217.068309,216.994833 C216.588647,216.147345 216.340191,215.203632 216.340191,214.149324 L216.340191,214.149324 Z" id="Fill-15" fill="#1A5290"></path>
            <path d="M180.2045,151.358517 C180.2045,150.307798 180.452956,149.364791 180.932618,148.513008 C181.428088,147.665535 182.090132,146.991139 182.933132,146.478349 C183.777574,145.974177 184.719676,145.713465 185.778088,145.713465 C186.836515,145.713465 187.795838,145.974177 188.623044,146.478349 C189.448824,146.991139 190.110868,147.665535 190.607765,148.513008 C191.087426,149.364791 191.334441,150.307798 191.334441,151.358517 C191.334441,152.40422 191.087426,153.355831 190.607765,154.211924 C190.110868,155.059412 189.448824,155.720864 188.590015,156.225756 C187.745574,156.717734 186.803485,156.966223 185.778088,156.966223 C184.719676,156.966223 183.777574,156.717734 182.933132,156.225756 C182.090132,155.720864 181.428088,155.059412 180.932618,154.211924 C180.452956,153.355831 180.2045,152.40422 180.2045,151.358517 L180.2045,151.358517 Z" id="Fill-16" fill="#1A5290"></path>
            <path d="M144.271309,5.64865544 C144.271309,4.60295243 144.515456,3.65204723 145.007324,2.80385316 C145.5035,1.95996874 146.160529,1.27768922 147.008559,0.760574126 C147.842941,0.260712379 148.802279,4.99600361e-15 149.836279,4.99600361e-15 C150.914809,4.99600361e-15 151.866956,0.260712379 152.689853,0.760574126 C153.515632,1.27768922 154.169059,1.95996874 154.665956,2.80385316 C155.165735,3.65204723 155.405559,4.60295243 155.405559,5.64865544 C155.405559,6.69937413 155.165735,7.65458898 154.665956,8.49416374 C154.169059,9.35025641 153.511324,10.0196217 152.672618,10.5166152 C151.829618,11.0042687 150.878912,11.2520521 149.836279,11.2520521 C148.802279,11.2520521 147.842941,11.0042687 147.008559,10.5166152 C146.160529,10.0196217 145.5035,9.35025641 145.007324,8.49416374 C144.515456,7.65458898 144.271309,6.69937413 144.271309,5.64865544 L144.271309,5.64865544 Z" id="Fill-17" fill="#1A5290"></path>
            <path d="M144.316559,89.1379667 C144.316559,88.0915577 144.560691,87.1528755 145.056868,86.3010778 C145.557368,85.4492948 146.223,84.7792235 147.057397,84.2621084 C147.897515,83.7572163 148.848235,83.4886053 149.893735,83.4886053 C150.960765,83.4886053 151.911485,83.7572163 152.747309,84.2621084 C153.561588,84.7792235 154.227941,85.4492948 154.727721,86.3010778 C155.211691,87.1528755 155.467324,88.0915577 155.467324,89.1379667 C155.467324,90.1879794 155.211691,91.1431943 154.727721,91.9949773 C154.227941,92.8431714 153.561588,93.5046233 152.730074,94.0088094 C151.874147,94.492874 150.927735,94.7535864 149.893735,94.7535864 C148.848235,94.7535864 147.897515,94.492874 147.057397,94.0088094 C146.223,93.5046233 145.557368,92.8431714 145.056868,91.9949773 C144.560691,91.1431943 144.316559,90.1879794 144.316559,89.1379667 L144.316559,89.1379667 Z" id="Fill-18" fill="#1A5290"></path>
            <path d="M108.164353,151.639336 C108.164353,150.601531 108.4085,149.646331 108.896059,148.794548 C109.396544,147.954974 110.062191,147.284888 110.905191,146.767787 C111.748912,146.251393 112.695309,145.995005 113.737941,145.995005 C114.808574,145.995005 115.755691,146.251393 116.586485,146.767787 C117.417279,147.284888 118.075029,147.954974 118.566897,148.794548 C119.058765,149.646331 119.310809,150.601531 119.310809,151.639336 C119.310809,152.697968 119.058765,153.649579 118.566897,154.492743 C118.075029,155.340216 117.405074,156.011023 116.565662,156.506575 C115.72625,156.999259 114.779132,157.247042 113.737941,157.247042 C112.695309,157.247042 111.748912,156.999259 110.905191,156.506575 C110.062191,156.011023 109.396544,155.340216 108.896059,154.492743 C108.4085,153.649579 108.164353,152.697968 108.164353,151.639336 L108.164353,151.639336 Z" id="Fill-19" fill="#1A5290"></path>
            <path d="M70.7505147,130.665014 C70.7505147,129.362202 71.0564118,128.196564 71.6725147,127.141536 C72.2807059,126.091523 73.1071912,125.247639 74.1491029,124.619208 C75.1787941,123.994381 76.3485147,123.664008 77.6431765,123.664008 C78.9701618,123.664008 80.1485,123.994381 81.1738824,124.619208 C82.1906618,125.247639 83.0135588,126.091523 83.62175,127.141536 C84.2249265,128.196564 84.5315441,129.362202 84.5315441,130.665014 C84.5315441,131.959221 84.2249265,133.12558 83.62175,134.179888 C83.0135588,135.234931 82.1827647,136.065886 81.1451618,136.669886 C80.0946471,137.281799 78.9292353,137.587755 77.6431765,137.587755 C76.3485147,137.587755 75.1787941,137.281799 74.1491029,136.669886 C73.1071912,136.065886 72.2807059,135.234931 71.6725147,134.179888 C71.0564118,133.12558 70.7505147,131.959221 70.7505147,130.665014 L70.7505147,130.665014 Z" id="Fill-20" fill="#1A5290"></path>
            <path d="M215.03475,130.582424 C215.03475,129.283922 215.347838,128.105355 215.943824,127.063241 C216.555603,126.021142 217.382809,125.181567 218.424,124.544517 C219.466632,123.916101 220.641368,123.601525 221.931015,123.601525 C223.253676,123.601525 224.444221,123.916101 225.453824,124.544517 C226.479206,125.181567 227.289176,126.021142 227.900971,127.063241 C228.51275,128.105355 228.827265,129.283922 228.827265,130.582424 C228.827265,131.880927 228.51275,133.059494 227.900971,134.101608 C227.289176,135.15593 226.461971,135.983296 225.436588,136.603093 C224.378162,137.207108 223.220647,137.521683 221.931015,137.521683 C220.641368,137.521683 219.466632,137.207108 218.424,136.603093 C217.382809,135.983296 216.555603,135.15593 215.943824,134.101608 C215.347838,133.059494 215.03475,131.880927 215.03475,130.582424 L215.03475,130.582424 Z" id="Fill-21" fill="#1A5290"></path>
            <path d="M142.973059,255.684991 C142.973059,254.398682 143.287574,253.220836 143.895044,252.165808 C144.502529,251.123694 145.325426,250.284119 146.375956,249.655688 C147.413544,249.018653 148.583985,248.704798 149.869309,248.704798 C151.200603,248.704798 152.371044,249.018653 153.396426,249.655688 C154.426132,250.284119 155.231794,251.123694 155.847882,252.165808 C156.455368,253.220836 156.765574,254.398682 156.765574,255.684991 C156.765574,256.995701 156.455368,258.16206 155.847882,259.216368 C155.231794,260.259202 154.413206,261.102366 153.372015,261.70638 C152.329397,262.318279 151.158956,262.624235 149.869309,262.624235 C148.583985,262.624235 147.413544,262.318279 146.375956,261.70638 C145.325426,261.102366 144.502529,260.259202 143.895044,259.216368 C143.287574,258.16206 142.973059,256.995701 142.973059,255.684991 L142.973059,255.684991 Z" id="Fill-22" fill="#1A5290"></path>
            <path d="M36.2146765,109.905454 C36.2146765,108.859031 36.4588088,107.90814 36.9506912,107.059931 C37.4468676,106.216768 38.1125147,105.530178 38.9562353,105.030302 C39.7949265,104.517511 40.7377353,104.256799 41.7925735,104.256799 C42.8588824,104.256799 43.8103235,104.517511 44.6368088,105.030302 C45.4632941,105.530178 46.1253529,106.216768 46.6129118,107.059931 C47.1133971,107.90814 47.3575441,108.859031 47.3575441,109.905454 C47.3575441,110.955452 47.1133971,111.911373 46.6129118,112.750963 C46.1253529,113.602746 45.4553971,114.272111 44.6159853,114.769104 C43.7729853,115.260347 42.83375,115.504541 41.7925735,115.504541 C40.7377353,115.504541 39.7949265,115.260347 38.9562353,114.769104 C38.1125147,114.272111 37.4468676,113.602746 36.9506912,112.750963 C36.4588088,111.911373 36.2146765,110.955452 36.2146765,109.905454 L36.2146765,109.905454 Z" id="Fill-23" fill="#1A5290"></path>
            <path d="M252.460074,109.760367 C252.460074,108.70606 252.691294,107.750845 253.188191,106.91127 C253.683647,106.059487 254.345706,105.389401 255.188706,104.868712 C256.033147,104.355921 256.97525,104.111727 258.033662,104.111727 C259.092088,104.111727 260.034176,104.355921 260.878618,104.868712 C261.705824,105.389401 262.366441,106.059487 262.846103,106.91127 C263.343,107.750845 263.590015,108.70606 263.590015,109.760367 C263.590015,110.811101 263.343,111.754093 262.846103,112.593667 C262.366441,113.457659 261.688588,114.132054 260.845588,114.611088 C260.018382,115.115995 259.059059,115.363764 258.033662,115.363764 C256.97525,115.363764 256.033147,115.115995 255.188706,114.611088 C254.345706,114.132054 253.683647,113.457659 253.188191,112.593667 C252.691294,111.754093 252.460074,110.811101 252.460074,109.760367 L252.460074,109.760367 Z" id="Fill-24" fill="#1A5290"></path>
            <path d="M252.526147,234.941934 C252.526147,233.883302 252.757353,232.94462 253.25425,232.097132 C253.749721,231.24104 254.411765,230.570968 255.272,230.066782 C256.099206,229.549682 257.058544,229.288969 258.099721,229.288969 C259.158147,229.288969 260.117471,229.549682 260.944676,230.066782 C261.771882,230.570968 262.4325,231.24104 262.929397,232.097132 C263.424868,232.94462 263.673309,233.883302 263.673309,234.941934 C263.673309,235.992653 263.424868,236.943558 262.929397,237.799651 C262.4325,238.634916 261.771882,239.313607 260.927456,239.801275 C260.084441,240.305446 259.125118,240.541727 258.099721,240.541727 C257.058544,240.541727 256.099206,240.305446 255.272,239.801275 C254.411765,239.313607 253.749721,238.634916 253.25425,237.799651 C252.757353,236.943558 252.526147,235.992653 252.526147,234.941934 L252.526147,234.941934 Z" id="Fill-25" fill="#1A5290"></path>
            <path d="M288.712088,255.875307 C288.712088,254.825295 288.960544,253.873683 289.456,253.029799 C289.952897,252.178016 290.613515,251.504341 291.456515,250.99155 C292.300956,250.487364 293.243059,250.214458 294.285676,250.214458 C295.359897,250.214458 296.303426,250.487364 297.129191,250.99155 C297.956397,251.504341 298.618456,252.178016 299.113912,253.029799 C299.610809,253.873683 299.859265,254.825295 299.859265,255.875307 C299.859265,256.917421 299.610809,257.868312 299.113912,258.724404 C298.618456,259.563979 297.956397,260.238375 297.113397,260.742546 C296.270397,261.234509 295.326868,261.470085 294.285676,261.470085 C293.243059,261.470085 292.300956,261.234509 291.456515,260.742546 C290.613515,260.238375 289.952897,259.563979 289.456,258.724404 C288.960544,257.868312 288.712088,256.917421 288.712088,255.875307 L288.712088,255.875307 Z" id="Fill-26" fill="#1A5290"></path>
            <path d="M144.229662,297.410974 C144.229662,296.373169 144.478118,295.417969 144.977882,294.578394 C145.461853,293.722302 146.131809,293.052216 146.966912,292.535115 C147.814221,292.02231 148.753456,291.774541 149.798941,291.774541 C150.878912,291.774541 151.829618,292.02231 152.648206,292.535115 C153.479721,293.052216 154.144647,293.722302 154.640118,294.578394 C155.124088,295.417969 155.376838,296.373169 155.376838,297.410974 C155.376838,298.469606 155.124088,299.420496 154.640118,300.26869 C154.144647,301.124783 153.466794,301.794148 152.630971,302.278213 C151.792279,302.782384 150.845882,303.026579 149.798941,303.026579 C148.753456,303.026579 147.814221,302.782384 146.966912,302.278213 C146.131809,301.794148 145.461853,301.124783 144.977882,300.26869 C144.478118,299.420496 144.229662,298.469606 144.229662,297.410974 L144.229662,297.410974 Z" id="Fill-27" fill="#1A5290"></path>
            <path d="M144.478118,47.0026102 C144.478118,45.9561865 144.713647,45.0131946 145.209824,44.1571019 C145.693794,43.3053189 146.359441,42.6359537 147.198132,42.1145436 C148.038265,41.6060479 148.980353,41.3410405 150.034471,41.3331419 C151.101515,41.3331419 152.060838,41.5931336 152.879426,42.0980257 C153.71525,42.6108165 154.375868,43.2765928 154.881382,44.1283758 C155.359603,44.9801588 155.616676,45.918841 155.620985,46.9609551 C155.625294,48.0116885 155.376838,48.9668886 154.897176,49.8107731 C154.397412,50.6668657 153.739662,51.3405406 152.892353,51.8490217 C152.047912,52.3452945 151.118735,52.589489 150.0675,52.5973876 C149.013382,52.5973876 148.075603,52.3539138 147.226853,51.8655396 C146.392471,51.3649571 145.718206,50.6955919 145.226338,49.8438089 C144.725853,49.0042341 144.482426,48.049034 144.478118,47.0026102 L144.478118,47.0026102 Z" id="Fill-28" fill="#1A5290"></path>
            <path d="M150.555779,300.607683 L150.555779,294.185539 C150.555779,293.432863 150.216853,293.052216 149.5505,293.052216 C148.529412,293.052216 147.620353,293.490316 146.819,294.362926 C146.011897,295.235551 145.623426,296.236716 145.623426,297.36573 C145.623426,298.51054 146.011897,299.532533 146.819,300.417352 C147.620353,301.306495 148.513618,301.736696 149.505971,301.736696 C150.208235,301.736696 150.555779,301.368257 150.555779,300.607683 L150.555779,300.607683 Z" id="Fill-29" fill="#FFFFFE"></path>
            <path d="M295.029588,259.059808 L295.029588,252.649872 C295.029588,251.884988 294.699279,251.504341 294.037221,251.504341 C293.011838,251.504341 292.102765,251.942441 291.291368,252.815051 C290.498618,253.691972 290.100824,254.688842 290.100824,255.830063 C290.100824,256.962665 290.498618,257.971729 291.291368,258.857268 C292.102765,259.742102 292.996044,260.188821 293.986956,260.188821 C294.682044,260.188821 295.029588,259.812483 295.029588,259.059808 L295.029588,259.059808 Z" id="Fill-30" fill="#FFFFFE"></path>
            <path d="M258.843632,238.134334 L258.843632,231.70788 C258.843632,230.959514 258.513324,230.579588 257.835485,230.579588 C256.825882,230.579588 255.899588,231.017687 255.122647,231.894608 C254.312676,232.754289 253.916309,233.759058 253.916309,234.905295 C253.916309,236.037897 254.312676,237.042666 255.122647,237.931794 C255.899588,238.816613 256.810088,239.267642 257.785221,239.267642 C258.480294,239.267642 258.843632,238.886994 258.843632,238.134334 L258.843632,238.134334 Z" id="Fill-31" fill="#FFFFFE"></path>
            <path d="M78.4826029,217.399897 L78.4826029,210.989961 C78.4826029,210.229387 78.1558824,209.84443 77.4859265,209.84443 C76.4648529,209.84443 75.5593676,210.291149 74.7572941,211.155861 C73.9545,212.027751 73.5581324,213.041139 73.5581324,214.174462 C73.5581324,215.30346 73.9545,216.312538 74.7572941,217.197357 C75.5593676,218.090795 76.4519265,218.528895 77.4363824,218.528895 C78.1393676,218.528895 78.4826029,218.148262 78.4826029,217.399897 L78.4826029,217.399897 Z" id="Fill-32" fill="#FFFFFE"></path>
            <path d="M258.761779,112.940558 L258.761779,106.531343 C258.761779,105.778668 258.430029,105.389401 257.769412,105.389401 C256.744029,105.389401 255.850765,105.828222 255.039353,106.700832 C254.246618,107.572737 253.833015,108.582521 253.833015,109.715123 C253.833015,110.848446 254.246618,111.8532 255.039353,112.742343 C255.850765,113.627162 256.744029,114.073881 257.719162,114.073881 C258.430029,114.073881 258.761779,113.706163 258.761779,112.940558 L258.761779,112.940558 Z" id="Fill-33" fill="#FFFFFE"></path>
            <path d="M150.659176,217.110458 L150.659176,210.709142 C150.659176,209.947847 150.333176,209.563611 149.662515,209.563611 C148.641426,209.563611 147.736676,210.013919 146.933882,210.874321 C146.131809,211.751241 145.734721,212.760319 145.734721,213.892922 C145.734721,215.021935 146.131809,216.030998 146.933882,216.915817 C147.736676,217.81358 148.6285,218.25168 149.613691,218.25168 C150.311647,218.25168 150.659176,217.879651 150.659176,217.110458 L150.659176,217.110458 Z" id="Fill-34" fill="#FFFFFE"></path>
            <path d="M6.10710294,258.753851 L6.10710294,252.558663 C6.10710294,251.826815 5.78470588,251.458376 5.13557353,251.458376 C4.15111765,251.458376 3.27435294,251.884988 2.50602941,252.728152 C1.73267647,253.575625 1.33989706,254.543769 1.33989706,255.639732 C1.33989706,256.740019 1.73267647,257.715341 2.50602941,258.575743 C3.27435294,259.439735 4.14751471,259.857727 5.09823529,259.857727 C5.76747059,259.857727 6.10710294,259.497908 6.10710294,258.753851 L6.10710294,258.753851 Z" id="Fill-35" fill="#FFFFFE"></path>
            <path d="M222.674926,217.33381 L222.674926,210.920286 C222.674926,210.154696 222.327382,209.778358 221.666765,209.778358 C220.641368,209.778358 219.730868,210.212869 218.936691,211.097688 C218.143956,211.961679 217.730353,212.970757 217.730353,214.104066 C217.730353,215.237388 218.143956,216.254365 218.936691,217.139184 C219.730868,218.028313 220.624147,218.467133 221.6165,218.467133 C222.311588,218.467133 222.674926,218.090795 222.674926,217.33381 L222.674926,217.33381 Z" id="Fill-36" fill="#FFFFFE"></path>
            <path d="M42.5364853,113.097854 L42.5364853,106.675695 C42.5364853,105.927344 42.1975588,105.546696 41.5355,105.546696 C40.5065294,105.546696 39.61325,105.981207 38.8068676,106.857407 C38.0091029,107.730017 37.6077059,108.726887 37.6077059,109.860196 C37.6077059,111.005727 38.0091029,112.014084 38.8068676,112.899624 C39.61325,113.784443 40.5022206,114.231162 41.4866765,114.231162 C42.1810441,114.231162 42.5364853,113.850514 42.5364853,113.097854 L42.5364853,113.097854 Z" id="Fill-37" fill="#FFFFFE"></path>
            <path d="M42.2097647,238.155161 L42.2097647,231.737327 C42.2097647,230.980342 41.8751471,230.604004 41.2095,230.604004 C40.1963235,230.604004 39.2865441,231.038515 38.4844706,231.911125 C37.6823971,232.788046 37.2817059,233.788505 37.2817059,234.925417 C37.2817059,236.058725 37.6823971,237.067803 38.4844706,237.952622 C39.2865441,238.849649 40.1711912,239.288469 41.1678529,239.288469 C41.8586324,239.288469 42.2097647,238.907837 42.2097647,238.155161 L42.2097647,238.155161 Z" id="Fill-38" fill="#FFFFFE"></path>
            <path d="M150.799926,259.630051 L150.799926,251.70688 C150.799926,250.763874 150.377706,250.292738 149.554809,250.292738 C148.306809,250.292738 147.169412,250.834255 146.185662,251.922334 C145.193309,252.993174 144.709338,254.237813 144.709338,255.639732 C144.709338,257.041666 145.193309,258.294203 146.185662,259.382282 C147.169412,260.494763 148.273779,261.031985 149.505971,261.031985 C150.361912,261.031985 150.799926,260.568748 150.799926,259.630051 L150.799926,259.630051 Z" id="Fill-39" fill="#FFFFFE"></path>
            <path d="M222.857309,134.527499 L222.857309,126.595695 C222.857309,125.665632 222.443706,125.190186 221.6165,125.190186 C220.359897,125.190186 219.235412,125.731703 218.243059,126.802544 C217.250691,127.881988 216.753794,129.122332 216.753794,130.528561 C216.753794,131.938394 217.250691,133.183753 218.243059,134.279716 C219.235412,135.379282 220.342662,135.929433 221.566235,135.929433 C222.426471,135.929433 222.857309,135.457577 222.857309,134.527499 L222.857309,134.527499 Z" id="Fill-40" fill="#FFFFFE"></path>
            <path d="M78.5730735,134.593571 L78.5730735,126.661781 C78.5730735,125.731703 78.1594706,125.259847 77.3365735,125.259847 C76.0677647,125.259847 74.9468676,125.797775 73.9545,126.885133 C72.9664559,127.960283 72.4788971,129.192713 72.4788971,130.606841 C72.4788971,132.004465 72.9664559,133.249825 73.9545,134.35801 C74.9468676,135.445354 76.05125,136.007713 77.2834412,136.007713 C78.1393676,136.007713 78.5730735,135.536577 78.5730735,134.593571 L78.5730735,134.593571 Z" id="Fill-41" fill="#FFFFFE"></path>
            <path d="M114.490471,154.836045 L114.490471,148.413901 C114.490471,147.665535 114.150824,147.284888 113.472971,147.284888 C112.464103,147.284888 111.550721,147.722987 110.747941,148.596319 C109.958779,149.456015 109.553088,150.465078 109.553088,151.598401 C109.553088,152.739623 109.958779,153.748687 110.747941,154.621297 C111.550721,155.522649 112.455485,155.969368 113.435632,155.969368 C114.13,155.969368 114.490471,155.584411 114.490471,154.836045 L114.490471,154.836045 Z" id="Fill-42" fill="#FFFFFE"></path>
            <path d="M150.641956,92.3303659 L150.641956,85.9082221 C150.641956,85.1555613 150.300147,84.7792235 149.638103,84.7792235 C148.612706,84.7792235 147.706515,85.2130136 146.913779,86.0899338 C146.115294,86.9625444 145.710309,87.9586937 145.710309,89.1006213 C145.710309,90.2375332 146.115294,91.2466114 146.913779,92.1314302 C147.706515,93.0248684 148.608397,93.4629682 149.587838,93.4629682 C150.291529,93.4629682 150.641956,93.0830415 150.641956,92.3303659 L150.641956,92.3303659 Z" id="Fill-43" fill="#FFFFFE"></path>
            <path d="M150.5845,8.84536427 L150.5845,2.4196168 C150.5845,1.6705449 150.249882,1.2906182 149.584971,1.2906182 C148.579676,1.2906182 147.657691,1.7244083 146.854897,2.60132854 C146.061441,3.47393913 145.656456,4.47079442 145.656456,5.60339665 C145.656456,6.74892786 146.061441,7.75800612 146.854897,8.64282495 C147.657691,9.52836451 148.546647,9.97436286 149.547618,9.97436286 C150.236956,9.97436286 150.5845,9.59443617 150.5845,8.84536427 L150.5845,8.84536427 Z" id="Fill-44" fill="#FFFFFE"></path>
            <path d="M186.506206,154.542297 L186.506206,148.132361 C186.506206,147.383995 186.174456,146.991139 185.513853,146.991139 C184.488456,146.991139 183.577956,147.442168 182.785221,148.314793 C181.991044,149.190993 181.593235,150.183539 181.593235,151.316862 C181.593235,152.450184 181.991044,153.459263 182.785221,154.344082 C183.577956,155.241109 184.488456,155.679929 185.463588,155.679929 C186.158662,155.679929 186.506206,155.299282 186.506206,154.542297 L186.506206,154.542297 Z" id="Fill-45" fill="#FFFFFE"></path>
            <path d="M150.808544,50.1741818 L150.782691,43.752038 C150.782691,42.9950528 150.448074,42.618715 149.778838,42.6230247 C148.76925,42.6273344 147.860176,43.0654341 147.057397,43.9380447 C146.263926,44.8192893 145.86325,45.8197335 145.866838,46.9566454 C145.871147,48.0899684 146.276147,49.095443 147.083235,49.9802618 C147.884603,50.872994 148.773559,51.3118145 149.765912,51.3075048 C150.461,51.3031951 150.808544,50.9268574 150.808544,50.1741818 L150.808544,50.1741818 Z" id="Fill-46" fill="#FFFFFE"></path>
        </g>
    </g>
</svg>